<svg width="192" height="36" viewBox="0 0 192 36" fill="none" xmlns="http://www.w3.org/2000/svg">
<path d="M11.75 35H1.41561e-07L5.4 1.65H17.85L21.75 15.3C22.1167 16.5333 22.3667 17.8167 22.5 19.15H22.8C22.8333 17.95 23.05 16.6667 23.45 15.3L27.35 1.65H39.7L45.15 35H33.5L32 20.05C31.8667 18.5167 31.8 17.4167 31.8 16.75H31.6C31.4 17.8167 31.1833 18.75 30.95 19.55L26 35H18.9L14.45 20.4C14.05 19.0333 13.8333 17.8167 13.8 16.75H13.45C13.45 18.05 13.4333 18.9167 13.4 19.35L11.75 35ZM86.0199 18.3C86.0199 23.2 84.4699 27.2333 81.3699 30.4C77.8699 33.9667 73.2533 35.75 67.5199 35.75C61.7866 35.75 57.1699 33.9667 53.6699 30.4C50.5699 27.2333 49.0199 23.2 49.0199 18.3C49.0199 13.4333 50.5699 9.41667 53.6699 6.25C57.1699 2.68333 61.7866 0.899998 67.5199 0.899998C73.2533 0.899998 77.8699 2.68333 81.3699 6.25C84.4699 9.41667 86.0199 13.4333 86.0199 18.3ZM67.5199 11.65C65.6866 11.65 64.2366 12.2167 63.1699 13.35C61.9033 14.6833 61.2699 16.35 61.2699 18.35C61.2699 20.3833 61.9033 22.0333 63.1699 23.3C64.3033 24.4333 65.7533 25 67.5199 25C69.2866 25 70.7366 24.4333 71.8699 23.3C73.1366 22.0333 73.7699 20.3833 73.7699 18.35C73.7699 16.2167 73.1366 14.55 71.8699 13.35C70.7366 12.2167 69.2866 11.65 67.5199 11.65ZM91.2426 22.95V1.65H103.243V21C103.243 22.5333 103.593 23.6667 104.293 24.4C104.859 25 105.659 25.3 106.693 25.3C107.793 25.3 108.609 25.0333 109.143 24.5C109.743 23.9 110.043 22.7333 110.043 21V1.65H122.093V22.1C122.093 26.0333 120.926 29.2 118.593 31.6C115.893 34.3667 111.926 35.75 106.693 35.75C101.159 35.75 97.0259 34.2833 94.2926 31.35C92.2592 29.15 91.2426 26.35 91.2426 22.95ZM140.341 35H128.791V1.65H140.341L148.091 14.25C149.425 16.4167 150.475 18.3833 151.241 20.15H151.591C150.891 17.2167 150.541 14.5833 150.541 12.25V1.65H162.141V35H150.541L142.241 21.85C141.508 20.6833 140.741 19.2333 139.941 17.5H139.591C140.091 20.0667 140.341 22.1167 140.341 23.65V35ZM184.53 35H172.63V12.2L165.83 12.5V1.65H191.33V12.5L184.53 12.2V35Z" fill="white"/>
</svg>
